<?xml version="1.0" encoding="UTF-8"?>
<svg version="1.1" xmlns="http://www.w3.org/2000/svg" width="128" height="128">
<path d="M0 0 C1.06992188 0.474375 2.13984375 0.94875 3.2421875 1.4375 C19.75466286 9.51889971 30.60523995 22.82755446 37 40 C41.30117326 53.9146728 41.09524021 71.68480263 35 85 C34.525625 86.06992188 34.05125 87.13984375 33.5625 88.2421875 C25.53996296 104.63439059 12.16715507 115.82260053 -5 122 C-22.41824347 127.05634913 -41.59366026 125.04005104 -57.41772461 116.46020508 C-72.85764719 107.52172136 -82.86748581 93.36904589 -88.11328125 76.3984375 C-91.19627114 63.38867917 -90.58043482 47.19059274 -85 35 C-84.2884375 33.39511719 -84.2884375 33.39511719 -83.5625 31.7578125 C-75.48110029 15.24533714 -62.17244554 4.39476005 -45 -2 C-31.0853272 -6.30117326 -13.31519737 -6.09524021 0 0 Z " fill="#2296F3" transform="translate(89,4)"/>
<path d="M0 0 C3 0.25 3 0.25 5 2.25 C5.22705078 4.86376953 5.22705078 4.86376953 5.1953125 8.1328125 C5.18886719 9.29941406 5.18242188 10.46601562 5.17578125 11.66796875 C5.15902344 12.89128906 5.14226562 14.11460938 5.125 15.375 C5.11597656 16.60605469 5.10695312 17.83710937 5.09765625 19.10546875 C5.07402548 22.15383815 5.04108054 25.20182382 5 28.25 C5.77714355 28.23952637 6.55428711 28.22905273 7.35498047 28.21826172 C10.861621 28.17679718 14.36821006 28.15070422 17.875 28.125 C19.09832031 28.10824219 20.32164063 28.09148438 21.58203125 28.07421875 C22.74863281 28.06777344 23.91523437 28.06132813 25.1171875 28.0546875 C26.19597168 28.04421387 27.27475586 28.03374023 28.38623047 28.02294922 C31 28.25 31 28.25 33 30.25 C33.25 33.25 33.25 33.25 33 36.25 C31 38.25 31 38.25 28.38623047 38.47705078 C27.30744629 38.46657715 26.22866211 38.45610352 25.1171875 38.4453125 C23.95058594 38.43886719 22.78398438 38.43242188 21.58203125 38.42578125 C19.74705078 38.40064453 19.74705078 38.40064453 17.875 38.375 C16.64394531 38.36597656 15.41289063 38.35695312 14.14453125 38.34765625 C11.09616185 38.32402548 8.04817618 38.29108054 5 38.25 C5.01571045 39.41571533 5.01571045 39.41571533 5.03173828 40.60498047 C5.07320282 44.111621 5.09929578 47.61821006 5.125 51.125 C5.14175781 52.34832031 5.15851563 53.57164063 5.17578125 54.83203125 C5.18544922 56.58193359 5.18544922 56.58193359 5.1953125 58.3671875 C5.21102295 59.98536377 5.21102295 59.98536377 5.22705078 61.63623047 C5 64.25 5 64.25 3 66.25 C0 66.5 0 66.5 -3 66.25 C-5 64.25 -5 64.25 -5.22705078 61.63623047 C-5.21657715 60.55744629 -5.20610352 59.47866211 -5.1953125 58.3671875 C-5.18886719 57.20058594 -5.18242188 56.03398438 -5.17578125 54.83203125 C-5.15902344 53.60871094 -5.14226563 52.38539062 -5.125 51.125 C-5.11597656 49.89394531 -5.10695313 48.66289063 -5.09765625 47.39453125 C-5.07402548 44.34616185 -5.04108054 41.29817618 -5 38.25 C-5.77714355 38.26047363 -6.55428711 38.27094727 -7.35498047 38.28173828 C-10.861621 38.32320282 -14.36821006 38.34929578 -17.875 38.375 C-19.09832031 38.39175781 -20.32164063 38.40851563 -21.58203125 38.42578125 C-23.33193359 38.43544922 -23.33193359 38.43544922 -25.1171875 38.4453125 C-26.19597168 38.45578613 -27.27475586 38.46625977 -28.38623047 38.47705078 C-31 38.25 -31 38.25 -33 36.25 C-33.25 33.25 -33.25 33.25 -33 30.25 C-31 28.25 -31 28.25 -28.38623047 28.02294922 C-27.30744629 28.03342285 -26.22866211 28.04389648 -25.1171875 28.0546875 C-23.36728516 28.06435547 -23.36728516 28.06435547 -21.58203125 28.07421875 C-20.35871094 28.09097656 -19.13539062 28.10773437 -17.875 28.125 C-16.64394531 28.13402344 -15.41289063 28.14304687 -14.14453125 28.15234375 C-11.09616185 28.17597452 -8.04817618 28.20891946 -5 28.25 C-5.01047363 27.47285645 -5.02094727 26.69571289 -5.03173828 25.89501953 C-5.07320282 22.388379 -5.09929578 18.88178994 -5.125 15.375 C-5.14175781 14.15167969 -5.15851562 12.92835937 -5.17578125 11.66796875 C-5.18222656 10.50136719 -5.18867187 9.33476563 -5.1953125 8.1328125 C-5.20578613 7.05402832 -5.21625977 5.97524414 -5.22705078 4.86376953 C-4.88743024 0.95411631 -3.84983192 0.32081933 0 0 Z " fill="#F8F9F9" transform="translate(64,30.75)"/>
</svg>
