<?xml version="1.0" encoding="UTF-8"?>
<svg version="1.1" xmlns="http://www.w3.org/2000/svg" width="128" height="128">
<path d="M0 0 C0.92468582 -0.01283524 1.84937164 -0.02567047 2.80207825 -0.03889465 C3.80413803 -0.04628159 4.80619781 -0.05366852 5.83862305 -0.0612793 C6.8671489 -0.06935104 7.89567474 -0.07742279 8.95536804 -0.08573914 C11.13510448 -0.09958571 13.31486266 -0.11030529 15.49462891 -0.11816406 C18.82650907 -0.13537494 22.15739666 -0.1792564 25.48901367 -0.22338867 C27.60554283 -0.23351561 29.72208042 -0.24203171 31.83862305 -0.2487793 C32.83461014 -0.26628738 33.83059723 -0.28379547 34.85676575 -0.30183411 C39.27363583 -0.28800125 41.81169934 -0.26754128 45.64404297 2.07861328 C48.73972861 5.50873035 48.6673814 7.57509805 48.68310547 12.1237793 C48.68948532 13.37202484 48.69586517 14.62027039 48.70243835 15.90634155 C48.70396713 17.27520713 48.70508104 18.64407322 48.70581055 20.01293945 C48.70902312 21.41297439 48.71238719 22.81300899 48.71589661 24.21304321 C48.72188945 27.15025612 48.72373638 30.08743961 48.72314453 33.0246582 C48.72304298 36.78637034 48.73668694 40.54789342 48.75391674 44.30956078 C48.7650426 47.20235051 48.76706355 50.09509465 48.76653481 52.98790359 C48.76771436 54.37456539 48.77213476 55.76122838 48.77986717 57.14786911 C48.78967684 59.08903316 48.78552223 61.03025255 48.78076172 62.97143555 C48.78218674 64.07570892 48.78361176 65.1799823 48.78507996 66.31771851 C48.53617635 69.19626267 48.14321299 70.79814646 46.5378418 73.17700195 C43.33880322 75.30969434 42.46141177 75.43723011 38.77856445 75.48339844 C37.81391266 75.49938583 36.84926086 75.51537323 35.8553772 75.53184509 C34.81473114 75.53720779 33.77408508 75.5425705 32.7019043 75.5480957 C31.63040131 75.55712418 30.55889832 75.56615265 29.45492554 75.57545471 C27.18701985 75.58996916 24.91907217 75.5988469 22.65112305 75.60253906 C19.18295648 75.61443297 15.71657011 75.66360713 12.2487793 75.71411133 C10.04566299 75.72357566 7.84253574 75.73081065 5.6394043 75.7355957 C4.6028067 75.75512802 3.56620911 75.77466034 2.49819946 75.79478455 C1.52724335 75.78870682 0.55628723 75.78262909 -0.4440918 75.77636719 C-1.71958389 75.78397316 -1.71958389 75.78397316 -3.02084351 75.79173279 C-6.67898377 74.87060139 -8.17588378 73.12185117 -10.4621582 70.17700195 C-11.09034729 67.13499451 -11.09034729 67.13499451 -11.09326172 63.70605469 C-11.10579483 62.41799423 -11.11832794 61.12993378 -11.13124084 59.80284119 C-11.11897345 58.4054157 -11.10555357 57.00799992 -11.09106445 55.6105957 C-11.09189361 54.17000652 -11.09435478 52.72941743 -11.09837341 51.28883362 C-11.10122721 48.27510985 -11.08657103 45.26213102 -11.05908203 42.24853516 C-11.02496775 38.38903831 -11.03103074 34.5308703 -11.04974461 30.67130947 C-11.06032062 27.69864353 -11.05137215 24.72628602 -11.03635979 21.75364876 C-11.03118389 20.33071878 -11.03165262 18.90775651 -11.03790474 17.48483086 C-11.04336428 15.49602965 -11.02011543 13.50721236 -10.99560547 11.51855469 C-10.98940689 10.38780014 -10.98320831 9.25704559 -10.9768219 8.09202576 C-10.35015945 4.54264782 -9.2430163 3.3921497 -6.4621582 1.17700195 C-4.10054208 -0.00380611 -2.63451164 0.031805 0 0 Z " fill="#1976D1" transform="translate(10.462158203125,52.822998046875)"/>
<path d="M0 0 C0.96465179 -0.0159874 1.92930359 -0.03197479 2.92318726 -0.04844666 C3.96383331 -0.05380936 5.00447937 -0.05917206 6.07666016 -0.06469727 C7.14816315 -0.07372574 8.21966614 -0.08275421 9.32363892 -0.09205627 C11.5915446 -0.10657072 13.85949228 -0.11544847 16.12744141 -0.11914062 C19.59560797 -0.13103453 23.06199434 -0.18020869 26.52978516 -0.23071289 C28.73290147 -0.24017722 30.93602871 -0.24741221 33.13916016 -0.25219727 C34.17575775 -0.27172958 35.21235535 -0.2912619 36.28036499 -0.31138611 C37.25132111 -0.30530838 38.22227722 -0.29923065 39.22265625 -0.29296875 C40.07298431 -0.2980394 40.92331238 -0.30311005 41.79940796 -0.30833435 C45.45754822 0.61279705 46.95444824 2.36154726 49.24072266 5.30639648 C49.86891174 8.34840393 49.86891174 8.34840393 49.87182617 11.77734375 C49.88435928 13.06540421 49.8968924 14.35346466 49.9098053 15.68055725 C49.89753791 17.07798274 49.88411802 18.47539852 49.86962891 19.87280273 C49.87045807 21.31339192 49.87291923 22.753981 49.87693787 24.19456482 C49.87979166 27.20828859 49.86513549 30.22126741 49.83764648 33.23486328 C49.8035322 37.09436012 49.80959519 40.95252813 49.82830906 44.81208897 C49.83888508 47.7847549 49.8299366 50.75711241 49.81492424 53.72974968 C49.80974835 55.15267966 49.81021707 56.57564192 49.81646919 57.99856758 C49.82192873 59.98736879 49.79867988 61.97618608 49.77416992 63.96484375 C49.76797134 65.0955983 49.76177277 66.22635284 49.75538635 67.39137268 C49.1287239 70.94075062 48.02158075 72.09124874 45.24072266 74.30639648 C42.87910653 75.48720455 41.41307609 75.45159344 38.77856445 75.48339844 C37.85387863 75.49623367 36.92919281 75.50906891 35.97648621 75.52229309 C34.97442642 75.52968002 33.97236664 75.53706696 32.93994141 75.54467773 C31.91141556 75.55274948 30.88288971 75.56082123 29.82319641 75.56913757 C27.64345997 75.58298415 25.4637018 75.59370373 23.28393555 75.6015625 C19.95205538 75.61877338 16.6211678 75.66265483 13.28955078 75.70678711 C11.17302163 75.71691404 9.05648403 75.72543014 6.93994141 75.73217773 C5.44596077 75.75843987 5.44596077 75.75843987 3.92179871 75.78523254 C-0.49507137 75.77139969 -3.03313489 75.75093972 -6.86547852 73.40478516 C-9.96116416 69.97466809 -9.88881694 67.90830039 -9.90454102 63.35961914 C-9.91092087 62.1113736 -9.91730072 60.86312805 -9.9238739 59.57705688 C-9.92540268 58.20819131 -9.92651659 56.83932522 -9.92724609 55.47045898 C-9.93045867 54.07042405 -9.93382274 52.67038945 -9.93733215 51.27035522 C-9.943325 48.33314231 -9.94517193 45.39595883 -9.94458008 42.45874023 C-9.94447853 38.69702809 -9.95812249 34.93550502 -9.97535229 31.17383766 C-9.98647814 28.28104793 -9.9884991 25.38830378 -9.98797035 22.49549484 C-9.9891499 21.10883305 -9.9935703 19.72217006 -10.00130272 18.33552933 C-10.01111239 16.39436528 -10.00695778 14.45314589 -10.00219727 12.51196289 C-10.00362228 11.40768951 -10.0050473 10.30341614 -10.0065155 9.16567993 C-9.7576119 6.28713577 -9.36464853 4.68525198 -7.75927734 2.30639648 C-4.56023877 0.1737041 -3.68284731 0.04616833 0 0 Z " fill="#1976D1" transform="translate(78.75927734375,-0.306396484375)"/>
<path d="M0 0 C0.92791351 -0.00637985 1.85582703 -0.0127597 2.81185913 -0.01933289 C4.31965439 -0.02100212 4.31965439 -0.02100212 5.85791016 -0.02270508 C6.88880768 -0.02603348 7.9197052 -0.02936188 8.98184204 -0.03279114 C11.16578728 -0.03786057 13.34974029 -0.04019946 15.53369141 -0.04003906 C18.87626931 -0.0422228 22.21851582 -0.06037092 25.56103516 -0.0793457 C27.68082569 -0.08228015 29.8006178 -0.0842646 31.92041016 -0.08520508 C32.92155853 -0.09239059 33.92270691 -0.09957611 34.95419312 -0.10697937 C35.88841095 -0.10390274 36.82262878 -0.10082611 37.78515625 -0.09765625 C38.60519135 -0.09908127 39.42522644 -0.10050629 40.27011108 -0.10197449 C42.81484489 0.17741893 44.37058718 0.76627121 46.52197266 2.14526367 C48.90382048 5.71803541 48.86097839 8.34856598 48.89306641 12.48120117 C48.90660912 13.55575058 48.90660912 13.55575058 48.92042542 14.65200806 C48.93492127 16.16664455 48.94381302 17.68134357 48.94750977 19.19604492 C48.9593978 21.50572051 49.00857331 23.81271519 49.05908203 26.12182617 C49.06854799 27.59577151 49.07578221 29.06973321 49.08056641 30.54370117 C49.10009872 31.2303183 49.11963104 31.91693542 49.13975525 32.62435913 C49.10711257 36.11877507 48.54297017 38.11182062 46.67871094 41.08105469 C42.01635296 44.12979689 37.91630866 43.84422549 32.45556641 43.77416992 C30.84899925 43.77778786 30.84899925 43.77778786 29.2099762 43.78147888 C26.94976085 43.78050089 24.68952141 43.76711897 22.42944336 43.7421875 C18.96792405 43.70784751 15.50895309 43.72154039 12.04736328 43.7409668 C9.85008678 43.73406924 7.65281687 43.72439769 5.45556641 43.71166992 C4.42008163 43.71662979 3.38459686 43.72158966 2.31773376 43.72669983 C-4.84161742 43.60915819 -4.84161742 43.60915819 -8.09887695 41.23486328 C-11.56874296 35.97754639 -10.73952792 30.13022533 -10.77319336 24.02441406 C-10.79038184 21.85116128 -10.83426541 19.67944021 -10.87841797 17.5065918 C-10.8885476 16.11923317 -10.89706286 14.73186163 -10.90380859 13.34448242 C-10.91839111 12.08466553 -10.93297363 10.82484863 -10.94799805 9.52685547 C-10.39757307 5.56636907 -9.26601557 3.95206555 -6.47802734 1.14526367 C-4.10489611 -0.04130194 -2.64747474 0.01233028 0 0 Z " fill="#2096F2" transform="translate(79.47802734375,84.854736328125)"/>
<path d="M0 0 C1.60656715 -0.00361794 1.60656715 -0.00361794 3.24559021 -0.00730896 C5.50580556 -0.00633097 7.766045 0.00705095 10.02612305 0.03198242 C13.48764236 0.06632241 16.94661331 0.05262954 20.40820312 0.03320312 C22.60547963 0.04010068 24.80274954 0.04977224 27 0.0625 C28.03548477 0.05754013 29.07096954 0.05258026 30.13783264 0.04747009 C37.29718383 0.16501174 37.29718383 0.16501174 40.55444336 2.53930664 C44.02430936 7.79662353 43.19509433 13.64394459 43.22875977 19.74975586 C43.24594824 21.92300864 43.28983182 24.09472971 43.33398438 26.26757812 C43.34411401 27.65493675 43.35262927 29.04230829 43.359375 30.4296875 C43.37395752 31.68950439 43.38854004 32.94932129 43.40356445 34.24731445 C42.85313948 38.20780085 41.72158197 39.82210438 38.93359375 42.62890625 C36.56046252 43.81547186 35.10304114 43.76183965 32.45556641 43.77416992 C31.06369614 43.7837397 31.06369614 43.7837397 29.64370728 43.79350281 C28.13591202 43.79517204 28.13591202 43.79517204 26.59765625 43.796875 C25.56675873 43.8002034 24.53586121 43.8035318 23.47372437 43.80696106 C21.28977912 43.81203049 19.10582612 43.81436938 16.921875 43.81420898 C13.5792971 43.81639272 10.23705059 43.83454084 6.89453125 43.85351562 C4.77474071 43.85645007 2.65494861 43.85843452 0.53515625 43.859375 C-0.46599213 43.86656052 -1.4671405 43.87374603 -2.49862671 43.88114929 C-3.43284454 43.87807266 -4.36706238 43.87499603 -5.32958984 43.87182617 C-6.14962494 43.87325119 -6.96966003 43.87467621 -7.81454468 43.87614441 C-10.35927849 43.59675099 -11.91502077 43.00789872 -14.06640625 41.62890625 C-16.44825407 38.05613451 -16.40541198 35.42560394 -16.4375 31.29296875 C-16.44652847 30.57660248 -16.45555695 29.86023621 -16.46485901 29.12216187 C-16.47935486 27.60752537 -16.48824661 26.09282635 -16.49194336 24.578125 C-16.5038314 22.26844942 -16.5530069 19.96145473 -16.60351562 17.65234375 C-16.61298159 16.17839842 -16.6202158 14.70443672 -16.625 13.23046875 C-16.64453232 12.54385162 -16.66406464 11.8572345 -16.68418884 11.14981079 C-16.65154617 7.65539485 -16.08740376 5.66234931 -14.22314453 2.69311523 C-9.56078656 -0.35562697 -5.46074225 -0.07005557 0 0 Z " fill="#2096F2" transform="translate(16.06640625,-0.62890625)"/>
</svg>
