<?xml version="1.0" encoding="UTF-8"?>
<svg version="1.1" xmlns="http://www.w3.org/2000/svg" width="128" height="128">
<path d="M0 0 C0.68461807 -0.00817749 1.36923615 -0.01635498 2.07460022 -0.02478027 C4.35018021 -0.04968024 6.62569752 -0.06616399 8.90136719 -0.08056641 C9.67752129 -0.08589008 10.45367538 -0.09121376 11.2533493 -0.09669876 C15.3633882 -0.12345345 19.47339651 -0.14281873 23.58349609 -0.15722656 C27.82857039 -0.1738584 32.07286586 -0.21861613 36.31764603 -0.26959801 C39.58106367 -0.30326958 42.84429675 -0.31480397 46.10787201 -0.32045364 C47.67239059 -0.32716911 49.2368969 -0.3423991 50.80124664 -0.36634445 C52.994442 -0.39799312 55.18554217 -0.39803453 57.37890625 -0.390625 C59.24968842 -0.40275528 59.24968842 -0.40275528 61.15826416 -0.41513062 C65.32327974 0.35458169 66.76930966 2.00186114 69.44824219 5.19287109 C69.94324219 5.68787109 69.94324219 5.68787109 70.44824219 6.19287109 C70.99220391 11.00826997 71.1731453 14.95018004 68.69824219 19.19287109 C64.5198618 22.90698699 61.5166415 23.44684457 55.93896484 23.48339844 C55.29452927 23.49011566 54.65009369 23.49683289 53.98612976 23.50375366 C51.86144238 23.52270928 49.7370713 23.52665658 47.61230469 23.52880859 C46.13023755 23.53523838 44.64817167 23.54196688 43.16610718 23.54898071 C40.06090351 23.56094746 36.95581104 23.56466218 33.85058594 23.56347656 C29.88040446 23.56327344 25.91093932 23.59057067 21.94092751 23.62502098 C18.87990066 23.64730883 15.81904568 23.65131354 12.75794601 23.65025711 C11.29476834 23.65261043 9.83158574 23.66141885 8.36848831 23.67692184 C6.31725828 23.69662127 4.26756584 23.69073055 2.21630859 23.67871094 C0.46901962 23.68298599 0.46901962 23.68298599 -1.31356812 23.68734741 C-5.28401161 23.08105486 -7.43323862 21.68253699 -10.55175781 19.19287109 C-13.36630376 14.97105217 -13.35859862 11.15256901 -12.55175781 6.19287109 C-10.11425781 3.13037109 -10.11425781 3.13037109 -7.55175781 1.19287109 C-5.67840898 -0.68047774 -2.49864383 0.02583074 0 0 Z " fill="#4CBAEA" transform="translate(57.5517578125,97.80712890625)"/>
<path d="M0 0 C0.68461807 -0.00817749 1.36923615 -0.01635498 2.07460022 -0.02478027 C4.35018021 -0.04968024 6.62569752 -0.06616399 8.90136719 -0.08056641 C9.67752129 -0.08589008 10.45367538 -0.09121376 11.2533493 -0.09669876 C15.3633882 -0.12345345 19.47339651 -0.14281873 23.58349609 -0.15722656 C27.82857039 -0.1738584 32.07286586 -0.21861613 36.31764603 -0.26959801 C39.58106367 -0.30326958 42.84429675 -0.31480397 46.10787201 -0.32045364 C47.67239059 -0.32716911 49.2368969 -0.3423991 50.80124664 -0.36634445 C52.994442 -0.39799312 55.18554217 -0.39803453 57.37890625 -0.390625 C59.24968842 -0.40275528 59.24968842 -0.40275528 61.15826416 -0.41513062 C65.32327974 0.35458169 66.76930966 2.00186114 69.44824219 5.19287109 C69.94324219 5.68787109 69.94324219 5.68787109 70.44824219 6.19287109 C70.99220391 11.00826997 71.1731453 14.95018004 68.69824219 19.19287109 C64.5198618 22.90698699 61.5166415 23.44684457 55.93896484 23.48339844 C55.29452927 23.49011566 54.65009369 23.49683289 53.98612976 23.50375366 C51.86144238 23.52270928 49.7370713 23.52665658 47.61230469 23.52880859 C46.13023755 23.53523838 44.64817167 23.54196688 43.16610718 23.54898071 C40.06090351 23.56094746 36.95581104 23.56466218 33.85058594 23.56347656 C29.88040446 23.56327344 25.91093932 23.59057067 21.94092751 23.62502098 C18.87990066 23.64730883 15.81904568 23.65131354 12.75794601 23.65025711 C11.29476834 23.65261043 9.83158574 23.66141885 8.36848831 23.67692184 C6.31725828 23.69662127 4.26756584 23.69073055 2.21630859 23.67871094 C0.46901962 23.68298599 0.46901962 23.68298599 -1.31356812 23.68734741 C-5.28401161 23.08105486 -7.43323862 21.68253699 -10.55175781 19.19287109 C-13.36630376 14.97105217 -13.35859862 11.15256901 -12.55175781 6.19287109 C-10.11425781 3.13037109 -10.11425781 3.13037109 -7.55175781 1.19287109 C-5.67840898 -0.68047774 -2.49864383 0.02583074 0 0 Z " fill="#4CBAEA" transform="translate(57.5517578125,52.80712890625)"/>
<path d="M0 0 C0.64443558 -0.00671722 1.28887115 -0.01343445 1.95283508 -0.02035522 C4.07752247 -0.03931084 6.20189354 -0.04325815 8.32666016 -0.04541016 C9.8087273 -0.05183994 11.29079317 -0.05856844 12.77285767 -0.06558228 C15.87806134 -0.07754902 18.98315381 -0.08126374 22.08837891 -0.08007812 C26.05856039 -0.079875 30.02802552 -0.10717223 33.99803734 -0.14162254 C37.05906418 -0.16391039 40.11991916 -0.1679151 43.18101883 -0.16685867 C44.6441965 -0.16921199 46.1073791 -0.17802041 47.57047653 -0.19352341 C49.62170657 -0.21322283 51.67139901 -0.20733211 53.72265625 -0.1953125 C55.46994522 -0.19958755 55.46994522 -0.19958755 57.25253296 -0.20394897 C61.22297645 0.40234357 63.37220347 1.80086145 66.49072266 4.29052734 C69.3052686 8.51234626 69.29756347 12.33082943 68.49072266 17.29052734 C66.05322266 20.35302734 66.05322266 20.35302734 63.49072266 22.29052734 C62.99572266 22.78552734 62.99572266 22.78552734 62.49072266 23.29052734 C60.30919271 23.41120762 58.12371346 23.46081271 55.93896484 23.48339844 C55.25434677 23.49157593 54.5697287 23.49975342 53.86436462 23.50817871 C51.58878464 23.53307867 49.31326732 23.54956243 47.03759766 23.56396484 C46.26144356 23.56928852 45.48528946 23.5746122 44.68561554 23.5800972 C40.57557664 23.60685189 36.46556833 23.62621716 32.35546875 23.640625 C28.11039446 23.65725684 23.86609899 23.70201457 19.62131882 23.75299644 C16.35790117 23.78666801 13.09466809 23.79820241 9.83109283 23.80385208 C8.26657425 23.81056755 6.70206794 23.82579754 5.1377182 23.84974289 C2.94452285 23.88139156 0.75342268 23.88143297 -1.43994141 23.87402344 C-3.31072357 23.88615372 -3.31072357 23.88615372 -5.21929932 23.89852905 C-9.38431489 23.12881674 -10.83034482 21.4815373 -13.50927734 18.29052734 C-13.83927734 17.96052734 -14.16927734 17.63052734 -14.50927734 17.29052734 C-15.05323907 12.47512847 -15.23418046 8.5332184 -12.75927734 4.29052734 C-8.58089696 0.57641145 -5.57767665 0.03655387 0 0 Z " fill="#4CBAEA" transform="translate(59.50927734375,6.70947265625)"/>
<path d="M0 0 C4.68597212 2.64169344 7.40547853 6.00608122 10.0625 10.6875 C11.73812871 17.23768494 11.28726694 22.73323226 7.95703125 28.65234375 C5.36790252 32.34750805 1.86332838 34.66716931 -2.25 36.375 C-8.63452627 37.05969154 -14.91709645 37.31119072 -20.25 33.375 C-25.20124333 28.42375667 -27.38730654 24.82744599 -27.625 17.6875 C-27.56678476 11.66949925 -26.34964637 7.8056074 -22.25 3.375 C-15.46412781 -1.91798031 -8.03093882 -3.67259252 0 0 Z " fill="#159CE4" transform="translate(27.25,91.625)"/>
<path d="M0 0 C4.68597212 2.64169344 7.40547853 6.00608122 10.0625 10.6875 C11.73812871 17.23768494 11.28726694 22.73323226 7.95703125 28.65234375 C5.36790252 32.34750805 1.86332838 34.66716931 -2.25 36.375 C-8.63452627 37.05969154 -14.91709645 37.31119072 -20.25 33.375 C-25.20124333 28.42375667 -27.38730654 24.82744599 -27.625 17.6875 C-27.56678476 11.66949925 -26.34964637 7.8056074 -22.25 3.375 C-15.46412781 -1.91798031 -8.03093882 -3.67259252 0 0 Z " fill="#159CE4" transform="translate(27.25,46.625)"/>
<path d="M0 0 C5.35224142 3.14481982 8.59463027 7.15498457 10.57421875 13.09375 C11.3576756 19.60543238 10.39318013 24.71195211 6.57421875 30.09375 C2.20712647 34.80781673 -2.36482664 37.13043306 -8.73828125 37.46875 C-13.66532424 37.34557393 -17.40276114 35.91260083 -21.42578125 33.09375 C-26.90822568 27.32275587 -27.83838033 22.80106329 -27.66796875 15 C-27.19924198 9.37527876 -24.99130033 6.43420055 -20.92578125 2.78125 C-15.21857633 -1.9872699 -6.92756946 -2.58807748 0 0 Z " fill="#159CE4" transform="translate(27.42578125,0.90625)"/>
<path d="M0 0 C4.89446367 -0.11501351 9.78421485 -0.2144671 14.67895508 -0.2746582 C16.34252839 -0.29975347 18.00599196 -0.33383796 19.66918945 -0.37719727 C22.06489153 -0.4380746 24.45913251 -0.46625769 26.85546875 -0.48828125 C27.96513252 -0.52699089 27.96513252 -0.52699089 29.09721375 -0.56648254 C33.15708339 -0.56867178 34.78845457 -0.17719055 37.9465332 2.46801758 C38.62417725 3.30357178 39.30182129 4.13912598 40 5 C40.495 5.495 40.495 5.495 41 6 C41.54396172 10.81539887 41.72490311 14.75730895 39.25 19 C34.80879207 22.94774038 31.21176878 23.28100854 25.390625 23.1953125 C24.66381531 23.1924826 23.93700562 23.18965271 23.18817139 23.18673706 C20.87527749 23.17557523 18.56277612 23.15047851 16.25 23.125 C14.67839102 23.11496501 13.10677596 23.10584006 11.53515625 23.09765625 C7.68983264 23.07735359 3.84535377 23.03819888 0 23 C0 15.41 0 7.82 0 0 Z " fill="#169DE4" transform="translate(87,98)"/>
<path d="M0 0 C4.89446367 -0.11501351 9.78421485 -0.2144671 14.67895508 -0.2746582 C16.34252839 -0.29975347 18.00599196 -0.33383796 19.66918945 -0.37719727 C22.06489153 -0.4380746 24.45913251 -0.46625769 26.85546875 -0.48828125 C27.96513252 -0.52699089 27.96513252 -0.52699089 29.09721375 -0.56648254 C33.15708339 -0.56867178 34.78845457 -0.17719055 37.9465332 2.46801758 C38.62417725 3.30357178 39.30182129 4.13912598 40 5 C40.495 5.495 40.495 5.495 41 6 C41.54396172 10.81539887 41.72490311 14.75730895 39.25 19 C34.80879207 22.94774038 31.21176878 23.28100854 25.390625 23.1953125 C24.66381531 23.1924826 23.93700562 23.18965271 23.18817139 23.18673706 C20.87527749 23.17557523 18.56277612 23.15047851 16.25 23.125 C14.67839102 23.11496501 13.10677596 23.10584006 11.53515625 23.09765625 C7.68983264 23.07735359 3.84535377 23.03819888 0 23 C0 15.41 0 7.82 0 0 Z " fill="#169DE4" transform="translate(87,53)"/>
<path d="M0 0 C4.5908602 -0.09212428 9.17848115 -0.17166281 13.76953125 -0.21972656 C15.32921244 -0.23977222 16.88881913 -0.26701657 18.44824219 -0.30175781 C20.69745314 -0.35059126 22.9456659 -0.37303815 25.1953125 -0.390625 C26.23161301 -0.42159271 26.23161301 -0.42159271 27.28884888 -0.45318604 C32.32788477 -0.45549191 35.13352906 0.82864909 39 4 C41.81454595 8.22181892 41.80684081 12.04030209 41 17 C38.5625 20.0625 38.5625 20.0625 36 22 C35.505 22.495 35.505 22.495 35 23 C32.40640678 23.08851529 29.83960309 23.11525945 27.24609375 23.09765625 C26.47064713 23.0962413 25.6952005 23.09482635 24.89625549 23.09336853 C22.40996506 23.08775345 19.9237634 23.07519846 17.4375 23.0625 C15.75586067 23.05748694 14.07421994 23.0529237 12.39257812 23.04882812 C8.26165671 23.03862832 4.13092818 23.01905605 0 23 C0 15.41 0 7.82 0 0 Z " fill="#169DE4" transform="translate(87,7)"/>
</svg>
