<?xml version="1.0" encoding="UTF-8"?>
<svg version="1.1" xmlns="http://www.w3.org/2000/svg" width="512" height="512">
<path d="M0 0 C0.78236526 -0.00705963 1.56473053 -0.01411926 2.37080383 -0.02139282 C35.08819305 -0.24958345 35.08819305 -0.24958345 48.671875 3.203125 C49.95118896 3.52506836 49.95118896 3.52506836 51.25634766 3.85351562 C88.82265619 13.54718543 125.33442986 33.19423109 149.671875 64.203125 C150.084375 64.71439941 150.496875 65.22567383 150.921875 65.75244141 C181.76972878 104.17301485 195.30852173 151.96872006 190.46484375 200.87109375 C187.24827943 228.81526472 177.55240229 254.60677979 162.68994141 278.3605957 C161.48433946 280.54253285 160.59769808 282.88856729 159.671875 285.203125 C166.271875 291.803125 172.871875 298.403125 179.671875 305.203125 C183.02195972 303.52808264 184.43058883 302.58150479 186.921875 300.078125 C189.65067895 297.7432885 190.83411174 297.16323072 194.484375 296.265625 C198.40437137 296.59608524 200.33000056 298.366809 203.15815735 300.99833679 C204.48021148 302.22731217 204.48021148 302.22731217 205.82897377 303.48111534 C210.96982049 308.40335262 216.03700612 313.39412926 221.07885742 318.41723633 C222.29046598 319.62092227 223.50224777 320.82443388 224.71418762 322.02778625 C228.65557505 325.94322979 232.5917646 329.86387586 236.52734375 333.78515625 C237.89110704 335.14355077 239.25487469 336.50194092 240.61864662 337.86032677 C246.29237383 343.51247685 251.96467975 349.16604695 257.63328075 354.82333851 C265.7185259 362.89233601 273.81215609 370.95270849 281.91767997 379.00133687 C287.64055343 384.68541842 293.35372402 390.37913885 299.05987245 396.08000964 C302.45814562 399.4746457 305.86039603 402.86504689 309.27312279 406.24515724 C312.48292124 409.4247072 315.68043184 412.61613356 318.86927605 415.81669426 C320.03429598 416.98193344 321.20352548 418.14298317 322.37746811 419.29923248 C335.02553948 431.76712661 342.85725112 444.05956089 343.109375 462.078125 C343.01393509 476.50943407 338.2922373 488.2123197 328.484375 498.953125 C316.54806911 510.08654036 303.26331424 513.00584694 287.52734375 512.546875 C270.07893675 511.60535371 258.16217815 500.29419978 246.52124023 488.52246094 C245.24294177 487.24467227 243.96376711 485.96775965 242.68379211 484.69165039 C239.23730742 481.25054805 235.80328575 477.79725545 232.3716228 474.34138012 C228.77070942 470.71906451 225.15874641 467.10779843 221.54811096 463.49517822 C215.49538109 457.4360189 209.45008048 451.36953199 203.40991211 445.29785156 C195.65422061 437.50175164 187.88700788 429.71723885 180.11588955 421.93651962 C173.42842934 415.24076547 166.74544398 408.54055043 160.06359982 401.83919239 C158.63028678 400.40183029 157.19681875 398.96462272 155.76319766 397.52756786 C151.68222068 393.43681249 147.60361314 389.34372722 143.52905083 385.24658203 C142.29390754 384.00531333 141.05792341 382.76488068 139.82104874 381.52533722 C138.1362499 379.83656084 136.45455628 378.14475321 134.77366638 376.4520874 C134.2811721 375.95977749 133.78867782 375.46746757 133.28125948 374.96023917 C129.92918329 371.57495919 127.84639061 369.3471718 127.109375 364.515625 C127.16037241 360.55968289 128.52223974 358.8168722 131.171875 355.953125 C131.8215625 355.32921875 132.47125 354.7053125 133.140625 354.0625 C135.09567984 352.0899606 135.09567984 352.0899606 134.671875 348.203125 C132.91406131 345.89159001 132.91406131 345.89159001 130.515625 343.65625 C129.65839844 342.81191406 128.80117188 341.96757812 127.91796875 341.09765625 C127.01175781 340.22496094 126.10554688 339.35226562 125.171875 338.453125 C124.26566406 337.56496094 123.35945313 336.67679687 122.42578125 335.76171875 C120.18315884 333.56630944 117.93174732 331.38075113 115.671875 329.203125 C112.66193323 330.35227006 109.8954393 331.55517738 107.16796875 333.26953125 C89.89839385 343.90291311 72.36780141 351.34389206 52.671875 356.203125 C51.42535156 356.52023437 50.17882812 356.83734375 48.89453125 357.1640625 C4.21447242 367.31633684 -44.85564012 358.40364481 -83.87402344 334.75097656 C-123.91981944 309.49328191 -154.06513716 269.86458026 -164.95800781 223.5234375 C-167.31150496 212.76899554 -169.450535 202.05626846 -169.56640625 191.015625 C-169.5762001 190.24415131 -169.58599396 189.47267761 -169.59608459 188.67782593 C-169.88647998 159.85043654 -166.74423456 132.63071014 -154.328125 106.203125 C-154.04743164 105.60081055 -153.76673828 104.99849609 -153.47753906 104.37792969 C-145.03013085 86.40148745 -134.15798531 70.43090432 -120.703125 55.828125 C-120.18911133 55.26931641 -119.67509766 54.71050781 -119.14550781 54.13476562 C-89.3897758 22.4781298 -43.85161494 0.2626439 0 0 Z " fill="#000000" transform="translate(169.328125,-0.203125)"/>
<path d="M0 0 C4.02149903 3.14907117 7.88954162 6.45503767 11.703125 9.8515625 C12.56550781 10.61210938 13.42789063 11.37265625 14.31640625 12.15625 C35.40532572 32.00905163 49.07349494 61.97463585 50.00390625 90.89453125 C50.34694272 126.74616615 39.12012642 158.20571572 13.890625 184.1015625 C-9.8510305 207.53538454 -41.52603427 218.23910775 -74.42407227 218.22509766 C-84.16766145 218.06157475 -92.98264524 216.61312568 -102.296875 213.8515625 C-103.53953125 213.51253906 -104.7821875 213.17351562 -106.0625 212.82421875 C-136.55868751 203.70780525 -161.4416437 182.22879394 -176.546875 154.4765625 C-191.78199654 125.20412039 -194.58271648 92.48815497 -185.09448242 60.86474609 C-179.98766272 44.88729514 -171.49942026 30.29928276 -160.296875 17.8515625 C-159.43578125 16.89121094 -158.5746875 15.93085937 -157.6875 14.94140625 C-117.30888695 -27.52781547 -47.54610741 -35.79967561 0 0 Z " fill="#E9F9FE" transform="translate(250.296875,82.1484375)"/>
<path d="M0 0 C24.84392887 -1.25625562 49.10940989 3.50043623 71.60449219 14.12646484 C72.60053467 14.58520996 72.60053467 14.58520996 73.61669922 15.05322266 C94.28818055 24.62771287 114.34594763 39.1636386 128.60449219 57.12646484 C129.24572021 57.92383057 129.24572021 57.92383057 129.89990234 58.73730469 C150.81950747 84.93813669 164.65247821 117.31151888 165.60449219 151.12646484 C165.63172363 152.03750977 165.65895508 152.94855469 165.68701172 153.88720703 C166.58076792 188.92919553 157.75670196 222.09362025 137.60449219 251.12646484 C136.87488281 252.18091797 136.14527344 253.23537109 135.39355469 254.32177734 C127.75951858 264.87714135 118.85414788 275.03195199 108.60449219 283.12646484 C108.06373047 283.55781738 107.52296875 283.98916992 106.96582031 284.43359375 C71.19455433 312.7761709 28.77967249 324.11116924 -16.45800781 318.87646484 C-54.6280377 314.00301167 -93.2883008 293.56985768 -117.39550781 263.12646484 C-117.83362793 262.57361816 -118.27174805 262.02077148 -118.72314453 261.45117188 C-146.61566202 225.98086527 -158.19017203 184.34942381 -153.45068359 139.50415039 C-148.24472436 97.47256868 -125.59575483 59.4037506 -92.46191406 33.34570312 C-78.74999479 22.76691853 -64.5661052 15.24484305 -48.39550781 9.12646484 C-47.40550781 8.73716797 -46.41550781 8.34787109 -45.39550781 7.94677734 C-30.9181641 2.6411599 -15.29085568 0.80724248 0 0 Z M-76.39550781 72.12646484 C-77.34296875 72.97208984 -78.29042969 73.81771484 -79.26660156 74.68896484 C-94.57309988 89.20745311 -105.47362769 108.71671193 -110.39550781 129.12646484 C-110.71519531 129.99658203 -111.03488281 130.86669922 -111.36425781 131.76318359 C-120.03845883 160.05290738 -113.54324767 191.29947258 -100.45019531 217.03271484 C-85.94213858 244.23163523 -60.93208321 265.5237094 -31.47412109 274.85595703 C0.89333248 284.52758016 33.50459734 281.38308416 63.47949219 265.87646484 C91.61833538 250.64534789 112.25902869 224.08961901 121.38574219 193.56787109 C130.54755499 160.9430516 125.68211246 127.75756672 109.22558594 98.37646484 C104.84783936 90.9969805 99.29541586 84.51617581 93.60449219 78.12646484 C92.84394531 77.26408203 92.08339844 76.40169922 91.29980469 75.51318359 C71.01037022 53.96044472 41.05023161 41.11559786 11.68261719 39.81005859 C-21.91628808 38.89693208 -51.37040918 49.75607965 -76.39550781 72.12646484 Z " fill="#395374" transform="translate(174.3955078125,19.87353515625)"/>
<path d="M0 0 C28.75340852 -1.27001749 59.81532442 7.2476572 83.34130859 24.13720703 C84.82244141 25.17554688 84.82244141 25.17554688 86.33349609 26.23486328 C115.46398531 47.56635844 134.61174616 77.9439479 142.34130859 113.13720703 C142.75810132 115.90379183 143.06495902 118.59515872 143.20068359 121.38720703 C143.24030195 123.24697207 143.24030195 123.24697207 144.34130859 125.13720703 C146.96930421 163.08546372 136.81285078 200.7189422 112.04052734 230.11767578 C102.55258114 240.87261213 92.51879125 250.5037082 80.34130859 258.13720703 C79.72175293 258.52602051 79.10219727 258.91483398 78.46386719 259.31542969 C63.57657531 268.48817845 47.49170371 274.72704989 30.34130859 278.13720703 C29.47078857 278.31525879 28.60026855 278.49331055 27.70336914 278.67675781 C19.73497685 280.17012742 11.99721475 280.4383502 3.90380859 280.38720703 C2.68371094 280.39494141 1.46361328 280.40267578 0.20654297 280.41064453 C-11.97135588 280.38474788 -23.29001056 278.62094736 -34.90869141 275.01220703 C-35.89450195 274.70798828 -36.8803125 274.40376953 -37.89599609 274.09033203 C-51.0587939 269.8918902 -63.36249764 264.1393708 -74.65869141 256.13720703 C-75.64740234 255.44498047 -76.63611328 254.75275391 -77.65478516 254.03955078 C-91.8514729 243.63096331 -104.28249979 231.06509105 -113.65869141 216.13720703 C-114.01898438 215.5679248 -114.37927734 214.99864258 -114.75048828 214.41210938 C-120.15661297 205.74324668 -124.2125399 196.73227743 -127.65869141 187.13720703 C-128.11244141 185.91775391 -128.56619141 184.69830078 -129.03369141 183.44189453 C-140.09198099 152.21944174 -138.44832073 114.9015412 -124.73681641 84.73486328 C-122.84489662 80.79378765 -120.77907216 76.95898384 -118.65869141 73.13720703 C-118.09279297 72.08146484 -117.52689453 71.02572266 -116.94384766 69.93798828 C-100.38384394 40.12998158 -72.6487955 18.28957167 -40.65869141 7.13720703 C-40.00852051 6.90517578 -39.35834961 6.67314453 -38.68847656 6.43408203 C-25.95978757 1.98197803 -13.40449964 0.69176573 0 0 Z M-77.65869141 52.13720703 C-78.60615234 52.98283203 -79.55361328 53.82845703 -80.52978516 54.69970703 C-95.83628348 69.2181953 -106.73681128 88.72745412 -111.65869141 109.13720703 C-111.97837891 110.00732422 -112.29806641 110.87744141 -112.62744141 111.77392578 C-121.30164243 140.06364957 -114.80643126 171.31021477 -101.71337891 197.04345703 C-87.20532217 224.24237742 -62.19526681 245.53445158 -32.73730469 254.86669922 C-0.36985111 264.53832235 32.24141375 261.39382635 62.21630859 245.88720703 C90.35515178 230.65609008 110.99584509 204.1003612 120.12255859 173.57861328 C129.28437139 140.95379378 124.41892887 107.76830891 107.96240234 78.38720703 C103.58465576 71.00772269 98.03223227 64.52691799 92.34130859 58.13720703 C91.58076172 57.27482422 90.82021484 56.41244141 90.03662109 55.52392578 C69.74718663 33.97118691 39.78704801 21.12634005 10.41943359 19.82080078 C-23.17947167 18.90767426 -52.63359278 29.76682183 -77.65869141 52.13720703 Z " fill="#010102" transform="translate(175.65869140625,39.86279296875)"/>
<path d="M0 0 C4.99715822 4.19239553 9.70965909 8.55658426 14.32470703 13.16357422 C15.01995483 13.85385712 15.71520264 14.54414001 16.43151855 15.25534058 C18.70970988 17.51903475 20.98408702 19.78650824 23.2578125 22.0546875 C24.03949673 22.83354435 24.82118095 23.6124012 25.62655258 24.41485977 C29.7587935 28.53216279 33.88818935 32.65229361 38.01513672 36.77490234 C42.26625263 41.0205248 46.52657319 45.25678309 50.78912544 49.49091911 C54.07821494 52.76134865 57.36054215 56.03850216 60.64107895 59.3175087 C62.20860127 60.88201434 63.77861251 62.44403056 65.3512001 64.00344467 C67.55267671 66.18778218 69.74440051 68.38148383 71.93408203 70.57763672 C72.57836151 71.21270142 73.22264099 71.84776611 73.88644409 72.5020752 C81.13492812 79.81755143 85.96016103 87.25858851 86.375 97.75 C86.20696434 106.22529866 83.50964818 113.25166458 77.703125 119.46875 C70.40953246 126.02629192 62.8296734 128.54516397 53.078125 128.29296875 C36.09536045 126.67658888 22.86696493 108.0053195 11.515625 96.61328125 C9.9635789 95.05936547 8.41130846 93.50567373 6.85882568 91.95219421 C2.81254799 87.9021346 -1.23071525 83.84907904 -5.27331543 79.79534912 C-9.41473602 75.6436204 -13.55905946 71.49479149 -17.703125 67.34570312 C-25.80489495 59.23327233 -33.90347695 51.11766718 -42 43 C-38.77736442 39.18703208 -35.55310331 35.42702848 -32.01416016 31.90063477 C-31.29386627 31.18041641 -30.57357239 30.46019806 -29.83145142 29.71815491 C-29.07496307 28.96682785 -28.31847473 28.21550079 -27.5390625 27.44140625 C-26.74849457 26.65225327 -25.95792664 25.86310028 -25.1434021 25.05003357 C-22.63962374 22.55181339 -20.13237525 20.05710956 -17.625 17.5625 C-15.91773752 15.86025792 -14.21070391 14.15778627 -12.50390625 12.45507812 C-8.33858075 8.30072611 -4.17020328 4.14945491 0 0 Z " fill="#FD513C" transform="translate(406,364)"/>
<path d="M0 0 C2.19471226 2.39887154 3.04823646 4.32373519 3.3125 7.5625 C3.01908545 10.96610876 2.45714326 11.62696838 0.125 14.4375 C-0.720625 15.118125 -1.56625 15.79875 -2.4375 16.5 C-2.9325 16.995 -2.9325 16.995 -3.4375 17.5 C-5.56522687 17.69555532 -7.69367646 17.88516024 -9.82446289 18.04394531 C-28.36762926 19.47203477 -43.87086818 24.54549914 -58.24609375 36.765625 C-60.4375 38.5 -60.4375 38.5 -62.59765625 39.484375 C-64.9717171 40.79489691 -65.32450565 42.06116775 -66.4375 44.5 C-67.6420707 45.97871438 -68.87429689 47.43509426 -70.125 48.875 C-75.06934772 54.93407339 -78.1386868 61.45139661 -81.4375 68.5 C-83.58543632 73.0112046 -85.04227851 75.90282366 -89.4375 78.5 C-93.77633183 79.19731226 -95.65027352 79.03052219 -99.3125 76.5625 C-102.1444103 72.48121751 -102.95217464 69.4470219 -102.4375 64.5 C-101.17499245 60.60294473 -99.37111917 57.10310995 -97.4375 53.5 C-96.97859375 52.57832031 -96.5196875 51.65664062 -96.046875 50.70703125 C-92.57946925 43.9532107 -88.36034942 38.25738961 -83.4375 32.5 C-82.83292969 31.74976563 -82.22835937 30.99953125 -81.60546875 30.2265625 C-68.01455685 13.91746822 -22.0720205 -16.15671901 0 0 Z " fill="#030404" transform="translate(187.4375,82.5)"/>
<path d="M0 0 C4.03070124 1.85723377 6.78284024 4.52717467 9.859375 7.6640625 C10.683237 8.49216934 10.683237 8.49216934 11.52374268 9.33700562 C13.27059293 11.09501815 15.01034601 12.8598689 16.75 14.625 C17.93573591 15.8207708 19.1219288 17.01608865 20.30859375 18.2109375 C23.21105085 21.13540253 26.1071641 24.06601874 29 27 C24.43852453 32.47313966 19.59258679 37.53954809 14.5390625 42.55859375 C13.74849457 43.34774673 12.95792664 44.13689972 12.1434021 44.94996643 C9.63962374 47.44818661 7.13237525 49.94289044 4.625 52.4375 C2.91773752 54.13974208 1.21070391 55.84221373 -0.49609375 57.54492188 C-4.66141898 61.69927363 -8.82959219 65.85075081 -13 70 C-17.25889835 66.42253118 -21.3533068 62.76872235 -25.27734375 58.8203125 C-26.66469727 57.428125 -26.66469727 57.428125 -28.08007812 56.0078125 C-29.03260849 55.04693091 -29.98508178 54.08599274 -30.9375 53.125 C-31.91708237 52.14039081 -32.89689837 51.156014 -33.87695312 50.171875 C-36.25360252 47.78351797 -38.62787356 45.39284788 -41 43 C-39.55419034 39.68386118 -37.75170208 37.50814272 -35.19287109 34.96582031 C-34.41221283 34.18531311 -33.63155457 33.40480591 -32.82723999 32.60064697 C-31.98448517 31.76821472 -31.14173035 30.93578247 -30.2734375 30.078125 C-29.41062164 29.21813904 -28.54780579 28.35815308 -27.65884399 27.47210693 C-24.90221971 24.7266769 -22.13872201 21.9882831 -19.375 19.25 C-17.50475143 17.38978217 -15.63495411 15.52911054 -13.765625 13.66796875 C-9.1823064 9.10670055 -4.59332522 4.55118989 0 0 Z " fill="#395475" transform="translate(363,322)"/>
<path d="M0 0 C4.61618687 1.93190801 7.93299893 6.20099292 11.41259766 9.69140625 C12.26144531 10.51189453 13.11029297 11.33238281 13.98486328 12.17773438 C14.78214844 12.97244141 15.57943359 13.76714844 16.40087891 14.5859375 C17.1347583 15.31272705 17.8686377 16.0395166 18.62475586 16.78833008 C20.10009766 18.87890625 20.10009766 18.87890625 19.97900391 20.97021484 C18.54736969 24.07924715 16.18158597 26.30980597 13.78759766 28.69140625 C13.30097656 29.20638672 12.81435547 29.72136719 12.31298828 30.25195312 C10.86181641 31.7109375 10.86181641 31.7109375 8.10009766 33.87890625 C2.42071628 33.51692049 -1.46011382 27.8303569 -5.21240234 24.06640625 C-6.06125 23.24591797 -6.91009766 22.42542969 -7.78466797 21.58007812 C-8.58195312 20.78537109 -9.37923828 19.99066406 -10.20068359 19.171875 C-10.93456299 18.44508545 -11.66844238 17.7182959 -12.42456055 16.96948242 C-13.89990234 14.87890625 -13.89990234 14.87890625 -13.77880859 12.78759766 C-12.34717438 9.67856535 -9.98139066 7.44800653 -7.58740234 5.06640625 C-7.10078125 4.55142578 -6.61416016 4.03644531 -6.11279297 3.50585938 C-2.46917212 -0.1573772 -2.46917212 -0.1573772 0 0 Z " fill="#E1F0F5" transform="translate(314.89990234375,301.12109375)"/>
<path d="M0 0 C3.13836313 2.02685952 4.65870267 3.45297192 5.4765625 7.16015625 C5.74016844 11.31541824 5.31813896 13.49713519 3.0625 17.0625 C-1.05391923 19.66676523 -4.2539907 20.04704003 -9 19 C-12.0432531 17.0125694 -13.62073803 15.67958873 -14.4375 12.0625 C-14.67021319 8.22273235 -14.23162678 6.36288196 -12.125 3.0625 C-8.50083748 -0.4550695 -4.89874773 -0.79616359 0 0 Z " fill="#050505" transform="translate(95,181)"/>
</svg>
